<svg xmlns="http://www.w3.org/2000/svg" version="1.1" xmlns:xlink="http://www.w3.org/1999/xlink" xmlns:svgjs="http://svgjs.dev/svgjs" width="1000" height="658" viewBox="0 0 1000 658"><g transform="matrix(1,0,0,1,-0.4950506564834427,0.2668886946668181)"><svg viewBox="0 0 375 247" data-background-color="#ffffff" preserveAspectRatio="xMidYMid meet" height="658" width="1000" xmlns="http://www.w3.org/2000/svg" xmlns:xlink="http://www.w3.org/1999/xlink"><g id="tight-bounds" transform="matrix(1,0,0,1,0.1856439961812839,-0.09997365579206985)"><svg viewBox="0 0 374.6285786666667 247.2" height="247.2" width="374.6285786666667"><g><svg viewBox="0 0 374.6285786666667 247.2" height="247.2" width="374.6285786666667"><g><svg viewBox="0 0 374.6285786666667 247.2" height="247.2" width="374.6285786666667"><g><svg viewBox="0 0 374.6285786666667 247.2" height="247.2" width="374.6285786666667"><g><svg viewBox="0 0 374.6285786666667 247.2" height="247.2" width="374.6285786666667"><path d="M373.751 53.02C371.99 27.36 366.971 20.227 366.971 20.227 351.56-6.202 332.328-0.506 315.05 3.292 284.546 3.446 254.165 9.091 223.732 12.119 159.853 12.581 95.428 4.986 31.866 23.717 25.895 29.464-6.194 24.846 1.062 56.304 2.964 69.39 9.903 83.913 9.692 95.922 10.643 98.026 11.964 93.202 12.527 96.23 14.5 104.39 17.723 100.541 20.365 105.365 16.684 118.246 19.326 128.971 21.844 140.21 17.406 143.135 11.717 141.749 9.164 151.449 8.899 158.479 7.473 157.145 5.905 156.837 4.761 156.632 2.453 157.402 2.841 159.608 4.162 167.152-1.509 171.514 2.048 178.904-0.4 186.91 3.739 193.838 3.175 202.511 3.105 204.255 3.492 205.744 4.109 206.154 6.839 208.361 2.858 212.672 3.281 217.342 31.284 249.262 61.665 227.195 90.355 241.872 97.805 231.608 92.205 245.516 95.181 243.36 97.506 240.846 99.197 251.263 101.821 245.362 102.226 243.668 101.609 239.665 103.054 240.435 103.811 240.846 104.48 240.743 104.586 238.382 104.744 234.841 103.353 237.048 102.983 235.201 106.981 225.861 105.995 248.081 109.746 247.158 109.57 244.438 108.478 240.538 110.715 241.051 112.934 237.151 113.004 233.918 114.977 242.693 115.047 244.592 115.4 245.926 115.963 246.85 122.128 237.305 128.257 250.237 134.72 245.926 138.683 241.205 142.487 248.492 146.503 246.696 147.912 245.259 149.338 242.693 150.694 247.004 167.303 247.928 185.003 244.079 200.748 247.158 242.823 241.41 287.787 249.518 332.152 241.923 342.613 238.998 353.48 234.841 363.677 231.506 363.677 231.506 371.937 222.371 371.937 181.316S373.699 145.393 373.963 112.703C374.227 80.013 375.46 78.679 373.699 53.02Z" opacity="1" fill="#55aec0" data-fill-palette-color="tertiary"></path><g transform="matrix(1,0,0,1,55.76832,26.230666666666668)"><svg width="263.0919386666667" viewBox="3.450000047683716 -36 67.55000305175781 50" height="194.73866666666666" data-palette-color="#ffffff"><path d="M9.35 4.35L9.35 4.35Q7.1 4.35 6.25 3.35 5.4 2.35 5.4 0.8L5.4 0.8Q5.4-0.65 6-2.65 6.6-4.65 7.25-6.5L7.25-6.5Q8.1-8.95 9.3-12.25 10.5-15.55 11.88-19.15 13.25-22.75 14.68-26.25 16.1-29.75 17.45-32.6L17.45-32.6Q14-32.55 11.68-32.45 9.35-32.35 7.5-32.18 5.65-32 3.45-31.6L3.45-31.6Q3.6-33.3 5.2-34.25 6.8-35.2 9.5-35.6 12.2-36 15.65-36L15.65-36Q19.1-36 21.83-35.73 24.55-35.45 26.95-35.2 29.35-34.95 31.75-34.9L31.75-34.9Q30.05-33.35 27.85-32.95 25.65-32.55 23.2-32.55L23.2-32.55Q22.65-32.55 22.05-32.58 21.45-32.6 20.85-32.6 20.25-32.6 19.65-32.6L19.65-32.6Q18.05-28.6 15.98-22.5 13.9-16.4 11.8-8.75L11.8-8.75Q11.1-6.1 10.53-4 9.95-1.9 9.63-0.15 9.3 1.6 9.3 3.25L9.3 3.25Q9.3 3.5 9.3 3.8 9.3 4.1 9.35 4.35ZM33 4.35L33 4.35Q29.95 4.35 28.15 3.23 26.35 2.1 25.57 0.45 24.8-1.2 24.8-2.75L24.8-2.75Q24.8-4.05 25.25-5.28 25.7-6.5 26.6-7.33 27.5-8.15 28.85-8.15L28.85-8.15Q29.1-8.15 29.32-8.15 29.55-8.15 29.75-8.1L29.75-8.1Q29.05-7.5 28.6-6.13 28.15-4.75 28.15-3.45L28.15-3.45Q28.15-1.9 28.8-0.48 29.45 0.95 30.65 1.85 31.85 2.75 33.45 2.75L33.45 2.75Q35.45 2.75 37.3 1.35 39.15-0.05 40.35-2.58 41.55-5.1 41.55-8.4L41.55-8.4Q41.55-10.35 41.02-12.25 40.5-14.15 39.3-15.58 38.1-17 36-17.55L36-17.55Q38.45-18.65 40.27-20.73 42.1-22.8 43.1-25.25 44.1-27.7 44.1-29.8L44.1-29.8Q44.1-32.45 42.72-33.55 41.35-34.65 39.6-34.65L39.6-34.65Q38.2-34.65 36.9-34.02 35.6-33.4 34.75-32.2 33.9-31 33.9-29.25L33.9-29.25Q33.9-28.5 34.1-27.63 34.3-26.75 34.7-25.9L34.7-25.9Q34.45-25.4 33.85-24.95 33.25-24.5 32.7-24.5L32.7-24.5Q32.1-24.5 31.67-25.13 31.25-25.75 31.05-26.68 30.85-27.6 30.85-28.45L30.85-28.45Q30.85-30.9 32.25-32.58 33.65-34.25 35.8-35.13 37.95-36 40.2-36L40.2-36Q42.2-36 43.95-35.3 45.7-34.6 46.8-33.18 47.9-31.75 47.9-29.55L47.9-29.55Q47.9-27.9 47.22-26.1 46.55-24.3 45.35-22.65 44.15-21 42.57-19.78 41-18.55 39.15-18.05L39.15-18.05Q42.05-17.35 43.67-15.7 45.3-14.05 45.97-12.1 46.65-10.15 46.65-8.4L46.65-8.4Q46.65-6.05 45.62-3.78 44.6-1.5 42.75 0.33 40.9 2.15 38.42 3.25 35.95 4.35 33 4.35ZM51.9 14L51.9 14Q50.8 14 49.9 13.33 49 12.65 49 11.1L49 11.1Q49 9.6 49.92 8.33 50.85 7.05 52.3 5.98 53.75 4.9 55.47 4 57.2 3.1 58.75 2.3L58.75 2.3Q59.45 0.55 60.07-1.48 60.7-3.5 61.3-5.95L61.3-5.95Q59.4-3.2 57.32-1.38 55.25 0.45 53.15 0.45L53.15 0.45Q51.35 0.45 50.37-0.9 49.4-2.25 49.4-4.4L49.4-4.4Q49.4-7 50.67-9.35 51.95-11.7 54-13.5 56.05-15.3 58.35-16.32 60.65-17.35 62.65-17.35L62.65-17.35Q64.09-17.35 64.72-16.88 65.34-16.4 65.34-15.75L65.34-15.75Q65.34-15.3 65.09-15.05 64.84-14.8 64.75-14.75L64.75-14.75Q64.5-15.15 64-15.33 63.5-15.5 62.75-15.5L62.75-15.5Q60.8-15.5 58.97-14.35 57.15-13.2 55.75-11.4 54.35-9.6 53.52-7.68 52.7-5.75 52.7-4.15L52.7-4.15Q52.7-2.95 53.17-2.33 53.65-1.7 54.45-1.7L54.45-1.7Q55.9-1.7 57.92-3.63 59.95-5.55 61.85-8.3L61.85-8.3Q62-9 62.12-9.55 62.25-10.1 62.45-10.95L62.45-10.95Q62.6-11.65 63.17-12.58 63.75-13.5 65-13.5L65-13.5Q65.25-13.5 65.5-13.48 65.75-13.45 66.05-13.35L66.05-13.35Q66.05-12.55 65.57-10.43 65.09-8.3 64.22-5.48 63.35-2.65 62.2 0.35L62.2 0.35Q63.85-0.45 65.42-1.7 67-2.95 68.3-4.58 69.59-6.2 70.34-8.1L70.34-8.1 71-7.6Q70.25-5.35 68.59-3.5 66.95-1.65 65.07-0.3 63.2 1.05 61.65 1.8L61.65 1.8Q60.25 5.15 58.7 7.93 57.15 10.7 55.47 12.35 53.8 14 51.9 14ZM51.75 12.4L51.75 12.4Q52.75 12.4 54.47 10.43 56.2 8.45 58.2 3.65L58.2 3.65Q56.2 4.65 54.47 5.73 52.75 6.8 51.65 8 50.55 9.2 50.55 10.65L50.55 10.65Q50.55 11.45 50.9 11.93 51.25 12.4 51.75 12.4Z" opacity="1" transform="matrix(1,0,0,1,0,0)" fill="#ffffff" class="undefined-text-0" data-fill-palette-color="quaternary" id="text-0"></path></svg></g></svg></g></svg></g></svg></g><g></g></svg></g><defs></defs></svg><rect width="374.6285786666667" height="247.2" fill="none" stroke="none" visibility="hidden"></rect></g></svg></g></svg>